<svg width="96" height="96" viewBox="0 0 96 96" fill="none" xmlns="http://www.w3.org/2000/svg">
<path d="M47.9814 86.8031C68.3727 86.8031 84.9032 69.4053 84.9032 47.9441C84.9032 26.4828 68.3727 9.08514 47.9814 9.08514C27.59 9.08514 11.0597 26.4828 11.0597 47.9441C11.0597 69.4053 27.59 86.8031 47.9814 86.8031Z" fill="#E91E63"/>
<path fill-rule="evenodd" clip-rule="evenodd" d="M21.8157 75.5003C36.2641 90.7068 59.6984 90.7068 74.1637 75.5003C88.6121 60.2938 88.6121 35.6299 74.1637 20.4057C60.6932 6.24623 39.4506 5.27033 24.9178 17.478C33.6678 16.5198 39.5516 28.0887 32.7574 35.2396C29.4362 38.7351 31.7964 44.697 36.4832 44.697H38.4558C43.3113 44.697 47.5598 48.1216 48.8073 53.0722L52.7356 68.5624C54.9948 67.5333 56.8662 66.2203 58.3667 64.8362H58.2486C56.0063 65.0315 53.9495 63.47 53.4099 61.1811L50.3584 48.3345C49.7346 45.7261 51.2519 43.0823 53.7302 42.4258C56.2085 41.7693 58.7207 43.3663 59.3445 45.9746L61.4519 54.8466L67.4875 54.3497C69.0554 54.2255 70.5896 54.9529 71.5337 56.2838C72.4778 57.6146 72.7139 59.3534 72.1743 60.9149C70.2356 66.3446 62.9691 78.2506 46.9867 80.1138C44.677 80.3798 42.5527 78.8185 41.9794 76.4585L40.0405 68.3318L32.319 70.3724C29.8407 71.0289 27.3287 69.432 26.7049 66.8237C26.0812 64.2153 27.5985 61.5714 30.0768 60.9149L42.2829 57.7032C43.2945 57.4372 44.3396 57.5435 45.2837 57.9694L44.3735 54.3497C43.6653 51.5461 41.2544 49.5943 38.4895 49.5943H36.5171C27.6996 49.5943 23.2826 38.3802 29.5204 31.8149C33.4317 27.6984 29.453 20.8316 24.176 22.6238L18.4102 24.5756C7.50222 39.8352 8.63173 61.6247 21.8326 75.518L21.8157 75.5003Z" fill="white"/>
<path fill-rule="evenodd" clip-rule="evenodd" d="M76.8106 51.1378C73.4387 54.6866 67.9764 54.6866 64.6045 51.1378C61.2327 47.589 61.2327 41.8401 64.6045 38.2913C67.9764 34.7426 73.4387 34.7426 76.8106 38.2913C80.1824 41.8401 80.1824 47.589 76.8106 51.1378Z" fill="#E91E63"/>
</svg>
